<svg width="24" height="24" viewBox="0 0 24 24" fill="none" xmlns="http://www.w3.org/2000/svg">
<path d="M12 1.125C6.00375 1.125 1.125 6.00375 1.125 12C1.125 17.9963 6.00375 22.875 12 22.875C17.9963 22.875 22.875 17.9963 22.875 12C22.875 6.00375 17.9963 1.125 12 1.125ZM12 22.125C6.41625 22.125 1.875 17.5837 1.875 12C1.875 6.41625 6.41625 1.875 12 1.875C17.5837 1.875 22.125 6.41625 22.125 12C22.125 17.5837 17.5837 22.125 12 22.125ZM18.0413 8.05875C18.1875 8.205 18.1875 8.44125 18.0413 8.5875L11.2162 15.4125C11.145 15.4837 11.0513 15.5212 10.95 15.5212C10.8488 15.5212 10.755 15.48 10.6838 15.4125L7.00875 11.7375C6.8625 11.5912 6.8625 11.355 7.00875 11.2087C7.155 11.0625 7.39125 11.0625 7.5375 11.2087L10.9462 14.6175L17.505 8.05875C17.655 7.9125 17.895 7.9125 18.0413 8.05875Z" fill="#E25100"/>
</svg>
