<svg width="47" height="47" viewBox="0 0 47 47" fill="none" xmlns="http://www.w3.org/2000/svg">
<g clip-path="url(#clip0_401_948)">
<path d="M12.1875 39.2559C13.6371 39.2559 14.8125 38.0808 14.8125 36.6309C14.8125 35.1812 13.6371 34.0059 12.1875 34.0059C10.7379 34.0059 9.5625 35.1812 9.5625 36.6309C9.5625 38.0808 10.7379 39.2559 12.1875 39.2559ZM12.1875 35.3184C12.9123 35.3184 13.5 35.906 13.5 36.6309C13.5 37.3557 12.9123 37.9434 12.1875 37.9434C11.4627 37.9434 10.875 37.3557 10.875 36.6309C10.875 35.906 11.4627 35.3184 12.1875 35.3184Z" fill="white"/>
<path d="M41.0625 40.5686V16.5847L24 5.66464L9.27571 15.088L8.92644 12.463C9.66824 12.0272 10.2479 11.362 10.5776 10.5676L24 1.97324L43.99 14.7663L44.6975 13.6624L24 0.414642L10.8631 8.82445C10.7372 4.80299 7.57997 0.940476 7.44283 0.775131L6.9375 0.164062L6.43282 0.776413C6.29118 0.946243 3 4.98372 3 9.06862C3.00224 10.4648 3.74341 11.7555 4.94856 12.4607L3.66202 22.1077L3.65625 41.8811H4.96875V22.8499H8.90625V30.7835L7.87061 31.3811H6.28125V41.8811H37.7812V31.3811H36.3685L34.5894 24.7635L33.1875 25.1391V15.6311H14.8125V27.3734L10.2188 30.026V22.1936L9.46605 16.5245L24 7.2226L39.75 17.3028V41.8811H45V40.5686H41.0625ZM5.062 21.5374L6.20915 12.9359C6.69012 13.0295 7.18488 13.0295 7.66585 12.9359L8.813 21.5374H5.062ZM7.59375 11.6004V9.06862H6.28125V11.6004C5.12576 11.302 4.31699 10.2619 4.3125 9.06862C4.3125 6.36511 6.05214 3.54753 6.9375 2.28886C7.82478 3.54369 9.5625 6.35133 9.5625 9.06862C9.55801 10.2619 8.74924 11.302 7.59375 11.6004ZM23.3438 40.5686H18.0938V32.6936H23.3438V40.5686ZM29.9062 40.5686H24.6562V32.6936H29.9062V40.5686ZM36.4688 32.6936V40.5686H31.2188V32.6936H36.4688ZM33.6627 26.3708L35.0092 31.3811H14.9714L33.6627 26.3708ZM24.6562 16.9436H31.875V23.2725L29.3852 18.9611L24.6562 21.6912V16.9436ZM16.125 16.9436H23.3438V22.1936H16.125V16.9436ZM16.125 23.5061H21.5115L16.125 26.6163V23.5061ZM28.9049 20.7539L31.6715 25.5444L11.0109 31.0847L28.9049 20.7539ZM16.7812 32.6936V40.5686H7.59375V32.6936H16.7812Z" fill="white"/>
</g>
<defs>
<clipPath id="clip0_401_948">
<rect width="42" height="42" fill="white" transform="translate(3)"/>
</clipPath>
</defs>
</svg>
