<svg width="47" height="47" viewBox="0 0 47 47" fill="none" xmlns="http://www.w3.org/2000/svg">
<path d="M44.2713 39.0397H35.0983V34.69C37.1014 34.4206 38.8767 33.1696 39.909 31.273C41.2806 30.9595 42.5266 30.1654 43.4483 29.0098C44.4489 27.7554 45 26.1521 45 24.4954C45 21.9751 43.7095 19.6424 41.679 18.4308C41.4675 14.228 38.2276 10.8768 34.2818 10.8768C33.0397 10.8768 30.5 11.5002 29 13.3163C28.6631 13.5153 28.5512 13.9497 28.7502 14.2865C28.9492 14.6236 29.3836 14.7353 29.7204 14.5364C30.5853 14.0256 31.6481 12.2937 34.2818 12.2937C37.5792 12.2937 40.2669 15.2376 40.2731 18.8562C40.2736 19.1228 40.4237 19.3666 40.6616 19.487C42.4364 20.3853 43.583 22.3511 43.583 24.4953C43.583 27.2014 41.7504 29.5444 39.3201 29.9453C39.0925 29.9829 38.8975 30.1288 38.7973 30.3366C38.0372 31.9128 36.6639 32.9784 35.0983 33.2558V26.9868L38.585 23.7805C38.8729 23.5156 38.8917 23.0675 38.6269 22.7795C38.3619 22.4915 37.9138 22.4726 37.6259 22.7376L35.0983 25.0618V20.3325C35.0983 19.9412 34.7811 19.624 34.3898 19.624C33.9985 19.624 33.6813 19.9412 33.6813 20.3325V28.9073L31.1537 26.583C30.8657 26.3181 30.4175 26.337 30.1527 26.6249C29.8878 26.9129 29.9066 27.3611 30.1946 27.626L33.6814 30.8322V33.2889C32.0108 33.0737 30.5374 31.9683 29.7469 30.2956C29.6524 30.0957 29.4699 29.9513 29.2536 29.9055C26.9027 29.406 25.1965 27.1308 25.1965 24.4953C25.1965 22.4172 26.2445 20.5363 27.9314 19.5871C28.1571 19.46 28.2955 19.2199 28.2924 18.961C28.2922 18.9413 28.2915 18.9218 28.2908 18.9024C28.2904 18.8912 28.29 18.88 28.29 18.8688C28.29 17.393 29.0594 15.5276 29.8834 14.3654C30.1097 14.0462 30.0344 13.6039 29.7153 13.3778C29.396 13.1514 28.9538 13.2269 28.7276 13.5459C27.7889 14.8698 26.934 16.9091 26.8782 18.5698C24.9568 19.8227 23.7797 22.0544 23.7797 24.4954C23.7797 27.6703 25.7953 30.4359 28.6204 31.2092C29.6837 33.2118 31.5645 34.5078 33.6815 34.7152V39.0397H33.2328C33.1284 37.1856 31.861 35.5726 30.0961 35.028C29.5423 33.8498 28.4666 32.9955 27.2017 32.7185C26.787 30.8335 25.0901 29.4278 23.1127 29.4278C21.5879 29.4278 20.2053 30.2474 19.4682 31.5518C18.0167 31.607 16.7117 32.3824 15.962 33.5837C15.4948 32.2984 14.2981 31.3626 12.8969 31.262V29.3993C14.8094 29.1334 16.503 27.9371 17.4925 26.1274C18.8069 25.8237 20.0007 25.0612 20.8844 23.9532C21.8467 22.747 22.3767 21.2053 22.3767 19.6123C22.3767 17.1945 21.1413 14.9561 19.1964 13.7885C18.9853 9.7563 15.8736 6.5439 12.0847 6.5439C10 6.50024 8 8.0002 6.66134 9.35798C6.34757 9.59154 6.28248 10.0355 6.51604 10.3493C6.7496 10.6631 7.19346 10.7282 7.50739 10.4946C9 8.5002 10.9384 7.9608 12.0847 7.9608C15.225 7.9608 17.7847 10.7657 17.7906 14.2134C17.7911 14.4801 17.9412 14.7239 18.1791 14.8443C19.8682 15.6992 20.9595 17.5708 20.9595 19.6123C20.9595 22.1885 19.2158 24.4188 16.9035 24.8002C16.676 24.8378 16.4809 24.9837 16.3807 25.1916C15.6631 26.6798 14.3715 27.69 12.8967 27.9637V22.0109L16.2252 18.9503C16.5131 18.6854 16.5319 18.2373 16.2671 17.9493C16.0023 17.6612 15.554 17.6424 15.2661 17.9074L12.8967 20.0861V15.627C12.8967 15.2358 12.5795 14.9186 12.1882 14.9186C11.7969 14.9186 11.4797 15.2358 11.4797 15.627V23.7677L9.11044 21.589C8.82237 21.324 8.37423 21.3429 8.10943 21.6309C7.84455 21.9189 7.86336 22.3671 8.15134 22.6319L11.4796 25.6926V27.9969C9.90443 27.7814 8.51734 26.7332 7.7703 25.1528C7.67582 24.9528 7.49332 24.8085 7.27706 24.7626C5.04031 24.2872 3.41681 22.1213 3.41681 19.6123C3.41681 17.6335 4.41413 15.843 6.01965 14.9395C6.24523 14.8125 6.38364 14.5728 6.38062 14.314C6.38045 14.2948 6.37986 14.2757 6.37919 14.2566C6.37894 14.2463 6.37843 14.236 6.37843 14.2255C6.37843 13.3492 6.53994 12.5018 6.8584 11.7069C6.95314 11.4708 7.50206 10.5405 7.62274 10.3189C7.80986 9.97527 7.68304 9.5451 7.33938 9.35798C6.99572 9.1707 6.56547 9.2976 6.37843 9.64126C6.23138 9.91136 5.65852 10.8924 5.54329 11.1799C5.19426 12.0509 5.00084 12.9721 4.96699 13.9224C3.12682 15.129 2 17.2706 2 19.6123C2 22.6606 3.93315 25.317 6.64399 26.0656C7.66339 27.9767 9.45805 29.2166 11.4797 29.4241V31.4506C10.7044 31.7215 10.0408 32.2572 9.61392 32.9767C7.89342 33.0745 6.50323 34.3452 6.23381 36.021C4.96489 36.5845 4.0215 37.7022 3.67414 39.0396H2.70849C2.31721 39.0396 2 39.3568 2 39.7481C2 40.1394 2.31721 40.4566 2.70849 40.4566H4.26052H20.254H32.5026H44.2713C44.6626 40.4566 44.9798 40.1394 44.9798 39.7481C44.9798 39.3568 44.6625 39.0397 44.2713 39.0397ZM5.16007 39.0397C5.49803 38.1785 6.20895 37.4924 7.11464 37.1991C7.3996 37.1068 7.5957 36.8453 7.60452 36.546C7.64021 35.3357 8.61686 34.3876 9.828 34.3876C9.87654 34.3876 9.92962 34.3899 9.99488 34.3947C10.2984 34.4166 10.5823 34.2432 10.7002 33.9626C11.0304 33.177 11.7942 32.6693 12.6462 32.6693C13.7402 32.6693 14.6636 33.5227 14.7486 34.6123C14.7758 34.96 15.0521 35.2364 15.3999 35.2636C15.5931 35.2786 15.7799 35.321 15.9567 35.3857L15.9589 35.3866C15.9918 35.3987 16.0241 35.4117 16.0562 35.4253C16.0631 35.4283 16.07 35.4312 16.0769 35.4342C16.1069 35.4472 16.1366 35.4609 16.1657 35.4753C16.1756 35.4802 16.1854 35.4854 16.1952 35.4904C16.2356 35.5111 16.2751 35.5331 16.3139 35.5562C16.3351 35.5688 16.3564 35.5811 16.3771 35.5945C16.3928 35.6046 16.4079 35.6155 16.4232 35.6258C16.4465 35.6417 16.4696 35.6578 16.4922 35.6746C16.5051 35.6842 16.5178 35.6937 16.5303 35.7036C16.5577 35.7249 16.5847 35.7469 16.611 35.7697C16.6183 35.7759 16.6256 35.7818 16.6328 35.7881C16.7026 35.8499 16.7684 35.9165 16.8296 35.9873C16.8352 35.9938 16.8408 36.0004 16.8463 36.007C16.8721 36.0375 16.897 36.0688 16.9211 36.1008C16.9257 36.1069 16.9305 36.113 16.935 36.1192C16.99 36.1941 17.0401 36.2731 17.0852 36.3554C17.0911 36.3664 17.0968 36.3775 17.1026 36.3886C17.1186 36.4191 17.1338 36.4502 17.1483 36.4817C17.1541 36.4941 17.1599 36.5065 17.1655 36.519C17.1833 36.5599 17.2003 36.6013 17.2157 36.6433L17.2174 36.6477C17.3004 36.8771 17.4958 37.0477 17.7343 37.0991C17.7976 37.1127 17.8597 37.1294 17.9207 37.1481C17.9406 37.1542 17.9599 37.1617 17.9797 37.1683C18.0203 37.1819 18.0608 37.1958 18.1004 37.2116C18.1232 37.2207 18.1455 37.2311 18.1679 37.2409C18.2032 37.2563 18.2384 37.272 18.2729 37.2892C18.296 37.3007 18.3186 37.3131 18.3412 37.3254C18.3738 37.3429 18.4061 37.3611 18.4376 37.3801C18.46 37.3937 18.4821 37.4077 18.504 37.422C18.5346 37.4419 18.5647 37.4626 18.5943 37.4839C18.6154 37.4991 18.6362 37.5143 18.6567 37.5302C18.686 37.5529 18.7144 37.5765 18.7425 37.6004C18.7616 37.6166 18.7809 37.6328 18.7994 37.6496C18.8283 37.6758 18.8558 37.7031 18.8833 37.7305C18.8995 37.7467 18.9163 37.7626 18.932 37.7794C18.9629 37.8122 18.9921 37.8465 19.0211 37.8809C19.0318 37.8938 19.0433 37.9059 19.0538 37.9189C19.0924 37.9671 19.1293 38.0166 19.164 38.0678C19.1713 38.0785 19.1776 38.0899 19.1847 38.1006C19.2115 38.1414 19.2376 38.1827 19.2619 38.2251C19.2728 38.2443 19.2826 38.2643 19.293 38.2839C19.3118 38.319 19.3303 38.3542 19.3474 38.3902C19.3579 38.4126 19.3673 38.4356 19.3772 38.4582C19.3921 38.4928 19.4066 38.5273 19.4198 38.5625C19.4289 38.5867 19.4372 38.6112 19.4455 38.6357C19.4574 38.6706 19.4685 38.7058 19.4787 38.7414C19.4859 38.7666 19.4927 38.792 19.4991 38.8174C19.5081 38.8535 19.516 38.8899 19.5233 38.9265C19.5284 38.9521 19.5334 38.9776 19.5377 39.0035C19.5397 39.0155 19.5407 39.0277 19.5425 39.0397H5.16007ZM20.971 39.0398C20.9704 39.0331 20.969 39.0264 20.9685 39.0198C20.9604 38.9352 20.9499 38.8511 20.936 38.7681C20.9352 38.7632 20.9341 38.7583 20.9332 38.7534C20.9188 38.6687 20.9016 38.5848 20.8814 38.5018C20.8806 38.4982 20.8799 38.4946 20.879 38.4912C20.8587 38.4089 20.8353 38.3279 20.8098 38.2478C20.807 38.2392 20.8045 38.2304 20.8016 38.2218C20.7764 38.1447 20.7484 38.0688 20.7182 37.9937C20.7139 37.9829 20.7097 37.972 20.7052 37.9612C20.675 37.8877 20.6423 37.8155 20.6075 37.7444C20.6021 37.7331 20.5966 37.7219 20.591 37.7108C20.5556 37.6401 20.5181 37.5705 20.4785 37.5023C20.4724 37.492 20.4664 37.4818 20.4602 37.4715C20.4194 37.4027 20.3767 37.3352 20.3316 37.2693C20.3261 37.2612 20.3204 37.2534 20.3149 37.2455C20.2678 37.1778 20.219 37.1114 20.1678 37.047C20.1646 37.0429 20.1612 37.0391 20.158 37.035C20.1044 36.9681 20.0488 36.9029 19.9908 36.8399L19.9889 36.8378C19.9315 36.7754 19.8716 36.7152 19.81 36.6568C19.8047 36.6517 19.7994 36.6464 19.7941 36.6413C19.7349 36.5858 19.6736 36.5324 19.6107 36.4807C19.6023 36.4738 19.594 36.4667 19.5855 36.4597C19.5237 36.4098 19.4602 36.3618 19.3951 36.3157C19.3851 36.3086 19.375 36.3014 19.3649 36.2944C19.2999 36.2492 19.2333 36.206 19.1653 36.165C19.1546 36.1586 19.1439 36.1522 19.1332 36.1459C19.0643 36.1052 18.994 36.0665 18.9224 36.0301C18.9126 36.025 18.9026 36.0204 18.8927 36.0156C18.8188 35.979 18.7437 35.9443 18.667 35.9126C18.6602 35.9097 18.6533 35.9073 18.6465 35.9045C18.5661 35.8719 18.4846 35.8414 18.4014 35.8142L18.4005 35.8138C18.3969 35.8065 18.3928 35.7997 18.3892 35.7925C18.3605 35.7351 18.3306 35.6788 18.299 35.6234C18.2829 35.595 18.2656 35.5674 18.2488 35.5395C18.2284 35.506 18.2079 35.4726 18.1864 35.4398C18.1659 35.4081 18.1447 35.377 18.123 35.3461C18.1042 35.3193 18.0849 35.293 18.0654 35.2667C18.0409 35.2335 18.0163 35.2005 17.9906 35.1682C17.9755 35.1493 17.9596 35.1312 17.9442 35.1127C17.8844 35.0409 17.822 34.9716 17.7568 34.9048C17.7455 34.8933 17.7348 34.8813 17.7234 34.87C17.691 34.8378 17.6575 34.8069 17.6239 34.7759C17.6045 34.758 17.5852 34.7402 17.5654 34.7227C17.5333 34.6945 17.5007 34.6668 17.4675 34.6396C17.4433 34.6197 17.4187 34.6007 17.394 34.5814C17.3631 34.5577 17.3326 34.5337 17.3009 34.5108C17.2564 34.4786 17.2109 34.4478 17.1649 34.4177C17.1526 34.4096 17.1409 34.4007 17.1285 34.3928C17.6448 33.5206 18.59 32.966 19.6343 32.966C19.6982 32.966 19.7675 32.9689 19.8525 32.9752C20.1556 32.9978 20.4399 32.8237 20.5577 32.5431C20.9912 31.5116 21.9941 30.8451 23.1127 30.8451C24.5491 30.8451 25.7616 31.9658 25.8731 33.3963C25.9002 33.7441 26.1765 34.0204 26.5244 34.0476C27.605 34.1318 28.5418 34.8452 28.911 35.8652C28.994 36.0947 29.1894 36.2652 29.4279 36.3166C30.735 36.5983 31.7047 37.7224 31.8136 39.0401L20.971 39.0398Z" fill="white"/>
</svg>
