<svg width="47" height="47" viewBox="0 0 47 47" fill="none" xmlns="http://www.w3.org/2000/svg">
<path d="M23.9091 12.3633L27.9091 8.36328M26.6363 15.2724L33.5454 8.36328M29.3636 17.8178L38.8181 8.36328M32.2727 20.5451L38.8181 13.8178M35 23.2724L38.8181 19.2724" stroke="white" stroke-width="1.2"/>
<path d="M12.0909 14L33 36M12.0909 14L10.3732 15.5856C10.0038 15.9266 9.94493 16.4888 10.2357 16.8988L15.258 23.9816C16.1452 25.2327 15.9458 26.9516 14.7957 27.9664L8.54639 33.4805C7.89836 34.0523 7.46366 34.8271 7.31347 35.6782L7.29533 35.781C7.10837 36.8405 7.40581 37.928 8.10595 38.7448L8.25058 38.9136C8.84165 39.6031 9.70452 40 10.6127 40V40C11.5481 40 12.4338 39.5792 13.0246 38.8541L18.2693 32.4174C19.2868 31.1687 21.1088 30.9463 22.3967 31.9137L29.8801 37.5344C30.245 37.8085 30.7491 37.8008 31.1054 37.5157L33 36M12.0909 14L15.2371 9.05592C15.5815 8.51485 16.3389 8.43319 16.7907 8.88845L38.3651 30.6314C38.7953 31.065 38.7397 31.7796 38.2476 32.1414L33 36" stroke="white" stroke-width="1.2"/>
<circle cx="10.6366" cy="36.3642" r="0.909091" fill="white"/>
</svg>
