<svg width="47" height="47" viewBox="0 0 47 47" fill="none" xmlns="http://www.w3.org/2000/svg">
<path d="M12.7342 9H10.3078C7.38117 9 5 11.3812 5 14.3078V34.3258C5 35.5803 6.02033 36.6006 7.27477 36.6006H15.7673C17.0217 36.6006 18.042 35.5803 18.042 34.3258V14.3078C18.042 11.3812 15.6609 9 12.7342 9ZM9.81044 9.93882C9.53794 11.9501 7.9501 13.5379 5.93882 13.8104C6.16819 11.7821 7.7821 10.1682 9.81044 9.93882ZM5.90991 21.8297C5.90991 21.0004 6.09094 20.2125 6.41534 19.5035L7.61149 21.2056C7.49396 21.407 7.42642 21.6409 7.42642 21.8904V28.5631C7.42642 28.7706 7.47334 28.9675 7.55651 29.1438L6.16819 31.1198C6.00588 30.8952 5.90991 30.6198 5.90991 30.3222V21.8297ZM8.79129 29.9279H14.2507C14.4588 29.9279 14.6559 29.881 14.8325 29.7974L16.1265 31.6387C16.012 31.67 15.8917 31.6871 15.7673 31.6871H7.27477C7.15037 31.6871 7.03 31.67 6.91555 31.6387L8.20956 29.7974C8.3861 29.881 8.58324 29.9279 8.79129 29.9279ZM8.33633 28.5631V21.8904C8.33633 21.6394 8.54035 21.4354 8.79129 21.4354H14.2507C14.5017 21.4354 14.7057 21.6394 14.7057 21.8904V28.5631C14.7057 28.814 14.5017 29.018 14.2507 29.018H8.79129C8.54035 29.018 8.33633 28.814 8.33633 28.5631ZM14.7341 20.6141C14.5837 20.557 14.4209 20.5255 14.2507 20.5255H8.79129C8.62116 20.5255 8.45837 20.557 8.3079 20.6141L6.91413 18.6306C7.92853 17.1738 9.61518 16.2186 11.521 16.2186C13.4269 16.2186 15.1135 17.1738 16.1279 18.6306L14.7341 20.6141ZM17.1321 34.3258C17.1321 35.0784 16.5198 35.6907 15.7673 35.6907H7.27477C6.5222 35.6907 5.90991 35.0784 5.90991 34.3258V32.1408C6.29046 32.4271 6.76295 32.597 7.27477 32.597H15.7673C16.2791 32.597 16.7516 32.4271 17.1321 32.1408V34.3258ZM17.1321 30.3222C17.1321 30.6198 17.0362 30.8952 16.8738 31.1196L15.4855 29.1438C15.5687 28.9675 15.6156 28.7706 15.6156 28.5631V21.8904C15.6156 21.6409 15.5481 21.407 15.4305 21.2056L16.6267 19.5035C16.9511 20.2125 17.1321 21.0004 17.1321 21.8297V30.3222ZM17.1321 18.5109C15.995 16.5956 13.9055 15.3087 11.521 15.3087C9.13653 15.3087 7.04706 16.5956 5.90991 18.5109V14.7298C8.44794 14.4583 10.4583 12.4479 10.7301 9.90991H12.4937C12.6229 11.1087 13.1446 12.2297 13.9906 13.1043C14.8367 13.9794 15.9398 14.5384 17.1321 14.7071V18.5109ZM13.4181 9.96346C15.3481 10.2661 16.8646 11.8285 17.0994 13.7799C15.1964 13.4358 13.6948 11.879 13.4181 9.96346Z" fill="white"/>
<path d="M36.7508 9H34.3244C31.3978 9 29.0166 11.3812 29.0166 14.3078V34.3258C29.0166 35.5803 30.0369 36.6006 31.2914 36.6006H39.7839C41.0383 36.6006 42.0586 35.5803 42.0586 34.3258V14.3078C42.0586 11.3812 39.6775 9 36.7508 9ZM41.116 13.7799C39.213 13.4358 37.7114 11.879 37.4347 9.96346C39.3647 10.2661 40.8812 11.8285 41.116 13.7799ZM33.827 9.93882C33.5545 11.9501 31.9667 13.5379 29.9554 13.8104C30.1848 11.7821 31.7987 10.1682 33.827 9.93882ZM29.9265 21.8297C29.9265 21.0004 30.1075 20.2125 30.4319 19.5035L31.6281 21.2056C31.5106 21.407 31.443 21.6409 31.443 21.8904V28.5631C31.443 28.7706 31.4899 28.9675 31.5731 29.1438L30.1848 31.1198C30.0225 30.8952 29.9265 30.6198 29.9265 30.3222V21.8297ZM32.8079 29.9279H38.2673C38.4754 29.9279 38.6725 29.881 38.8491 29.7974L40.1431 31.6387C40.0286 31.67 39.9083 31.6871 39.7839 31.6871H31.2914C31.167 31.6871 31.0466 31.67 30.9322 31.6387L32.2262 29.7974C32.4027 29.881 32.5998 29.9279 32.8079 29.9279ZM32.3529 28.5631V21.8904C32.3529 21.6394 32.557 21.4354 32.8079 21.4354H38.2673C38.5183 21.4354 38.7223 21.6394 38.7223 21.8904V28.5631C38.7223 28.814 38.5183 29.018 38.2673 29.018H32.8079C32.557 29.018 32.3529 28.814 32.3529 28.5631ZM38.7507 20.6141C38.6003 20.557 38.4375 20.5255 38.2673 20.5255H32.8079C32.6378 20.5255 32.475 20.557 32.3245 20.6141L30.9307 18.6306C31.9451 17.1738 33.6318 16.2186 35.5376 16.2186C37.4435 16.2186 39.1301 17.1738 40.1445 18.6306L38.7507 20.6141ZM41.1487 34.3258C41.1487 35.0784 40.5364 35.6907 39.7839 35.6907H31.2914C30.5388 35.6907 29.9265 35.0784 29.9265 34.3258V32.1408C30.3071 32.4271 30.7796 32.597 31.2914 32.597H39.7839C40.2957 32.597 40.7682 32.4271 41.1487 32.1408V34.3258ZM41.1487 30.3222C41.1487 30.6198 41.0528 30.8952 40.8904 31.1196L39.5021 29.1438C39.5853 28.9675 39.6322 28.7706 39.6322 28.5631V21.8904C39.6322 21.6409 39.5647 21.407 39.4471 21.2056L40.6433 19.5035C40.9677 20.2125 41.1487 21.0004 41.1487 21.8297V30.3222ZM41.1487 18.5109C40.0116 16.5956 37.9221 15.3087 35.5376 15.3087C33.1531 15.3087 31.0637 16.5956 29.9265 18.5109V14.7298C32.4645 14.4583 34.4749 12.4479 34.7467 9.90991H36.5103C36.6395 11.1087 37.1612 12.2297 38.0072 13.1043C38.8533 13.9794 39.9564 14.5384 41.1487 14.7071V18.5109Z" fill="white"/>
<path d="M22.9668 6.28516H24.1094V40.7148H22.9668V6.28516Z" fill="white"/>
</svg>
