<svg width="47" height="47" viewBox="0 0 47 47" fill="none" xmlns="http://www.w3.org/2000/svg">
<path d="M37.7416 34.7243V37H41V11H37.7416V15.8359M37.7416 34.7243V15.8359M37.7416 34.7243H34.5674M37.7416 15.8359H34.5674M22.1236 15.8359H18.9213V34.7243H22.1236M22.1236 15.8359V34.7243M22.1236 15.8359H25.3258M22.1236 34.7243H25.3258M25.3258 15.8359V34.7243M25.3258 15.8359H28.3034M25.3258 34.7243H28.3034M28.3034 15.8359V34.7243M28.3034 15.8359H31.3933M28.3034 34.7243H31.3933M31.3933 15.8359V34.7243M31.3933 15.8359H34.5674M31.3933 34.7243H34.5674M34.5674 15.8359V34.7243M6 37V11H9.48315V37H6Z" stroke="white" stroke-width="1.3"/>
</svg>
