<svg width="47" height="47" viewBox="0 0 47 47" fill="none" xmlns="http://www.w3.org/2000/svg">
<g clip-path="url(#clip0_516_4541)">
<g clip-path="url(#clip1_516_4541)">
<path d="M1 28.8876V31.5169L23.3973 39M1 28.8876L12.1986 32.7303M1 28.8876L12.1986 24.9438M46 28.8876V31.3146L23.3973 39M46 28.8876L34.6986 24.9438M46 28.8876L34.6986 32.7303M23.3973 39V36.573M23.3973 36.573L12.1986 32.7303M23.3973 36.573L34.6986 32.7303M12.1986 32.7303L34.6986 24.9438M34.6986 24.9438L23.3973 21L12.1986 24.9438M34.6986 32.7303L12.1986 24.9438" stroke="white" stroke-width="1.1"/>
<path d="M16.1762 13.8367C15.5566 12.632 15.0682 11.681 16.1461 10.1256C16.3767 9.79217 16.2818 9.3428 15.9365 9.12101C15.5943 8.90064 15.1239 8.98911 14.8918 9.32248C13.33 11.5723 14.1591 13.1843 14.8254 14.4789C15.4481 15.6908 15.8988 16.5663 14.8918 18.0203C14.6597 18.3537 14.7546 18.8031 15.0998 19.0249C15.228 19.1075 15.3742 19.1467 15.519 19.1467C15.7617 19.1467 15.9999 19.0336 16.1446 18.8234C17.6356 16.6751 16.8275 15.1008 16.1762 13.8367Z" fill="white"/>
<path d="M24.1825 13.8367C23.5614 12.632 23.073 11.681 24.1508 10.1256C24.3815 9.79217 24.2865 9.3428 23.9413 9.12101C23.5991 8.90064 23.1272 8.98911 22.8966 9.32248C21.3363 11.5738 22.1654 13.1857 22.8302 14.4803C23.4529 15.6922 23.9036 16.5678 22.8966 18.0203C22.6659 18.3537 22.7609 18.8031 23.1061 19.0249C23.2342 19.1075 23.3789 19.1467 23.5237 19.1467C23.7664 19.1467 24.0046 19.0336 24.1508 18.8234C25.6418 16.6751 24.8338 15.1008 24.1825 13.8367Z" fill="white"/>
<path d="M32.1766 13.8367C31.5556 12.632 31.0671 11.681 32.145 10.1256C32.3756 9.79217 32.2807 9.3428 31.9355 9.12101C31.5932 8.90064 31.1214 8.98911 30.8907 9.32248C29.3304 11.5738 30.1595 13.1857 30.8244 14.4803C31.447 15.6922 31.8977 16.5678 30.8907 18.0203C30.6601 18.3537 30.755 18.8031 31.1002 19.0249C31.2284 19.1075 31.3731 19.1467 31.5178 19.1467C31.762 19.1467 32.0003 19.0336 32.145 18.8234C33.636 16.6751 32.8279 15.1008 32.1766 13.8367Z" fill="white"/>
</g>
</g>
<defs>
<clipPath id="clip0_516_4541">
<rect width="47" height="47" fill="white"/>
</clipPath>
<clipPath id="clip1_516_4541">
<rect width="47" height="47" fill="white"/>
</clipPath>
</defs>
</svg>
