<svg width="47" height="47" viewBox="0 0 47 47" fill="none" xmlns="http://www.w3.org/2000/svg">
<g clip-path="url(#clip0_323_979)">
<path d="M24.0003 13.1953C23.0692 13.1953 22.173 13.4754 21.4088 14.0053C21.1829 14.162 21.1258 14.4735 21.2812 14.7011C21.4367 14.9288 21.7459 14.9863 21.9718 14.8297C22.5698 14.4151 23.2711 14.196 24.0003 14.196C25.9761 14.196 27.5836 15.8155 27.5836 17.8062C27.5836 19.7968 25.9761 21.4164 24.0003 21.4164C22.0244 21.4164 20.417 19.7968 20.417 17.8062C20.417 17.2189 20.6963 15.5986 21.9021 14.8702C22.0287 14.625 21.948 14.4983 21.7047 14.3708C21.4613 14.2434 21.5497 13.9114 21.1793 14.196C20.1112 14.8362 19.4238 17.0671 19.4238 17.8062C19.4239 20.3487 21.4768 22.4171 24.0003 22.4171C26.5237 22.4171 28.5767 20.3487 28.5767 17.8062C28.5767 15.2637 26.5237 13.1953 24.0003 13.1953Z" fill="white"/>
<path d="M40.9618 40.3074L36.0608 28.443C35.9838 28.2564 35.8029 28.1349 35.6024 28.1349H30.7184C31.6684 26.8401 32.4591 25.5505 33.0766 24.2842C34.1709 22.04 34.7258 19.8606 34.7258 17.8064C34.7257 11.8477 29.9142 7 24 7C18.0858 7 13.2742 11.8477 13.2742 17.8064C13.2742 19.8606 13.8291 22.04 14.9234 24.2841C15.5409 25.5504 16.3316 26.8401 17.2816 28.1349H12.3976C12.1971 28.1349 12.0162 28.2564 11.9392 28.4429L8.59949 36.5276C8.49411 36.7827 8.6139 37.0756 8.86711 37.1817C8.92953 37.2079 8.99408 37.2203 9.0577 37.2203C9.25227 37.2203 9.43694 37.1043 9.5163 36.9121L9.99283 35.7585H13.3733L11.6215 39.9993H8.2411L9.48332 37.0321C9.58871 36.777 9.46891 36.4841 9.2157 36.378C8.96236 36.2717 8.67177 36.3925 8.56645 36.6476L7.03815 40.3074C6.97433 40.4618 6.99133 40.6382 7.0835 40.7773C7.17554 40.9164 7.33054 41 7.49655 41H40.5034C40.6693 41 40.8244 40.9164 40.9165 40.7773C41.0086 40.6382 41.0257 40.4618 40.9618 40.3074ZM14.2674 17.8064C14.2674 12.3994 18.6334 8.00061 24 8.00061C29.3665 8.00061 33.7325 12.3995 33.7325 17.8064C33.7325 20.0737 32.9506 23.6968 29.3335 28.3139C29.3298 28.3182 29.3265 28.3228 29.3231 28.3272C29.1383 28.5628 28.9464 28.8008 28.7466 29.0416C26.7589 31.4363 24.7475 33.185 23.9999 33.8063C23.2545 33.1871 21.2525 31.4472 19.2663 29.057C19.0615 28.8106 18.865 28.567 18.676 28.3259C18.6729 28.3221 18.6701 28.3181 18.6669 28.3143C15.0499 23.6975 14.2674 20.0745 14.2674 17.8064ZM12.7288 29.1355H16.1093L14.8763 32.1204H11.4958L12.7288 29.1355ZM15.6326 39.9994L18.7365 32.4857L27.5694 39.9994H15.6326ZM29.1089 39.9994L18.859 31.2803C18.738 31.1773 18.5754 31.1387 18.4218 31.1763C18.268 31.2138 18.141 31.323 18.0802 31.4702L14.5569 39.9993H12.6973L14.5763 35.4504C14.6401 35.296 14.6231 35.1197 14.531 34.9805C14.4389 34.8414 14.2839 34.7578 14.1179 34.7578H10.4063L11.0825 33.1209H15.2075C15.4081 33.1209 15.589 32.9993 15.6659 32.8128L17.185 29.1355H18.0468C18.1965 29.3234 18.3485 29.5114 18.5047 29.6993C21.0669 32.7826 23.5899 34.7621 23.6961 34.8449C23.7856 34.9147 23.8928 34.9495 24 34.9495C24.1071 34.9495 24.2144 34.9146 24.3038 34.8449C24.3622 34.7994 25.151 34.1802 26.2743 33.121H34.0912C34.3655 33.121 34.5878 32.897 34.5878 32.6207C34.5878 32.3443 34.3655 32.1204 34.0912 32.1204H27.2978C27.9863 31.4229 28.7388 30.6097 29.4953 29.6994C29.6515 29.5115 29.8036 29.3235 29.9532 29.1355H35.2712L36.5041 32.1204H33.8839C33.6097 32.1204 33.3874 32.3443 33.3874 32.6207C33.3874 32.897 33.6096 33.121 33.8839 33.121H36.9174L37.5936 34.7579H27.3624C27.1551 34.7579 26.9697 34.8875 26.8971 35.0831C26.8247 35.2788 26.8803 35.4992 27.0369 35.636L32.0262 39.9994H29.1089ZM33.5413 39.9994L28.692 35.7586H38.007L39.7589 39.9994H33.5413Z" fill="white"/>
</g>
<defs>
<clipPath id="clip0_323_979">
<rect width="34" height="34" fill="white" transform="translate(7 7)"/>
</clipPath>
</defs>
</svg>
