<svg width="47" height="47" viewBox="0 0 47 47" fill="none" xmlns="http://www.w3.org/2000/svg">
<path d="M43.9989 15.3945C43.9971 15.3195 43.9822 15.2454 43.9547 15.1756C43.9474 15.156 43.9395 15.1381 43.9305 15.1194C43.903 15.0618 43.8672 15.0086 43.8241 14.9616C43.8166 14.9534 43.8114 14.9437 43.8034 14.936C43.7585 14.8914 43.7073 14.8537 43.6514 14.824L30.0014 7.67397C29.8142 7.57571 29.5909 7.57479 29.4029 7.67145L5.3529 20.0214C5.29585 20.0513 5.24367 20.0895 5.19797 20.1349C5.18891 20.1438 5.18289 20.1545 5.17436 20.1638C5.13223 20.21 5.09704 20.2622 5.07 20.3186C5.06101 20.337 5.05279 20.3547 5.04555 20.3741C5.01721 20.4451 5.00175 20.5207 5 20.5971L5.00023 20.5987L5 20.5997V33.5997C5 33.8414 5.13421 34.0633 5.34849 34.1754L18.9985 41.3254C19.026 41.3381 19.0542 41.3488 19.0833 41.3574C19.1008 41.3636 19.1175 41.3723 19.1354 41.3771C19.1888 41.3915 19.2439 41.3991 19.2993 41.3996L19.2996 41.3995L19.2999 41.3996L19.3007 41.3994C19.3947 41.3975 19.4873 41.3752 19.5718 41.3339C19.5798 41.3303 19.589 41.3319 19.597 41.3279L43.6469 28.9779C43.8637 28.8665 43.9999 28.6433 43.9998 28.3996V15.3996L43.9989 15.3945ZM18.65 39.6755L6.30003 33.2064V21.6737L18.65 28.1428V39.6755ZM19.3029 27.0174L7.06174 20.6054L29.6971 8.98184L41.9383 15.3939L19.3029 27.0174ZM42.7 28.0026L19.95 39.6851V28.1467L42.7001 16.4642V28.0026H42.7Z" fill="white"/>
<path d="M17.9996 19.2998C15.7763 19.2998 14.0996 20.278 14.0996 21.5748C14.0996 22.8717 15.7764 23.8499 17.9996 23.8499C20.2228 23.8499 21.8996 22.8717 21.8996 21.5748C21.8996 20.278 20.2228 19.2998 17.9996 19.2998ZM17.9996 22.5498C16.3867 22.5498 15.3996 21.9186 15.3996 21.5748C15.3996 21.2311 16.3867 20.5998 17.9996 20.5998C19.6125 20.5998 20.5996 21.2311 20.5996 21.5748C20.5996 21.9186 19.6125 22.5498 17.9996 22.5498Z" fill="white"/>
<path d="M24.825 15.7246C22.6017 15.7246 20.925 16.7028 20.925 17.9996C20.925 19.2965 22.6018 20.2747 24.825 20.2747C27.0483 20.2747 28.725 19.2965 28.725 17.9996C28.725 16.7028 27.0483 15.7246 24.825 15.7246ZM24.825 18.9746C23.2121 18.9746 22.2251 18.3433 22.2251 17.9996C22.2251 17.6559 23.2121 17.0246 24.825 17.0246C26.438 17.0246 27.425 17.6559 27.425 17.9996C27.425 18.3433 26.438 18.9746 24.825 18.9746Z" fill="white"/>
<path d="M31.65 12.1494C29.4267 12.1494 27.75 13.1276 27.75 14.4244C27.75 15.7213 29.4268 16.6995 31.65 16.6995C33.8732 16.6995 35.55 15.7213 35.55 14.4244C35.55 13.1276 33.8732 12.1494 31.65 12.1494ZM31.65 15.3994C30.0371 15.3994 29.05 14.7682 29.05 14.4244C29.05 14.0807 30.0371 13.4494 31.65 13.4494C33.2629 13.4494 34.25 14.0807 34.25 14.4244C34.25 14.7682 33.2629 15.3994 31.65 15.3994Z" fill="white"/>
</svg>
