<svg width="47" height="47" viewBox="0 0 47 47" fill="none" xmlns="http://www.w3.org/2000/svg">
<path d="M27.3135 29.1371C27.3135 31.2079 25.6348 32.8867 23.564 32.8867C21.4931 32.8867 19.8145 31.2079 19.8145 29.1371C19.8145 27.0662 21.4931 25.3875 23.564 25.3875C25.6348 25.3875 27.3135 27.0662 27.3135 29.1371Z" stroke="white" stroke-width="1.37695" stroke-miterlimit="10" stroke-linecap="round" stroke-linejoin="round"/>
<path d="M10.6602 29.1371C10.6602 31.2079 8.98151 32.8867 6.91067 32.8867C4.83982 32.8867 3.16113 31.2079 3.16113 29.1371C3.16113 27.0662 4.83982 25.3875 6.91067 25.3875C8.98151 25.3875 10.6602 27.0662 10.6602 29.1371Z" stroke="white" stroke-width="1.37695" stroke-miterlimit="10" stroke-linecap="round" stroke-linejoin="round"/>
<path d="M13.6547 29.1367L21.0016 21.8504L11.996 23.8023L11.98 23.8061L6.91016 29.1364" stroke="white" stroke-width="1.37695" stroke-miterlimit="10" stroke-linecap="round" stroke-linejoin="round"/>
<path d="M10.9015 20.3802L13.6541 29.1367H10.6592" stroke="white" stroke-width="1.37695" stroke-miterlimit="10" stroke-linecap="round" stroke-linejoin="round"/>
<path d="M23.5644 29.1377L21.0015 21.8521L20.2549 19.7796H22.5495C23.3229 19.7796 23.9499 20.4065 23.9499 21.18" stroke="white" stroke-width="1.37695" stroke-miterlimit="10" stroke-linecap="round" stroke-linejoin="round"/>
<path d="M9.53906 20.3809H12.9937" stroke="white" stroke-width="1.37695" stroke-miterlimit="10" stroke-linecap="round" stroke-linejoin="round"/>
<path d="M13.6525 29.1371L14.8356 30.3203" stroke="white" stroke-width="1.37695" stroke-miterlimit="10" stroke-linecap="round" stroke-linejoin="round"/>
<path d="M0.688477 32.8867H46.3115" stroke="white" stroke-width="1.37695" stroke-miterlimit="10" stroke-linecap="round" stroke-linejoin="round"/>
<path d="M6.83455 41.1865H0.688477" stroke="white" stroke-width="1.37695" stroke-miterlimit="10" stroke-linecap="round" stroke-linejoin="round"/>
<path d="M46.3125 41.1865L6.3125 41.1865" stroke="white" stroke-width="1.37695" stroke-miterlimit="10" stroke-linecap="round" stroke-linejoin="round"/>
<path d="M46.2357 32.8867H0.688477" stroke="white" stroke-width="1.37695" stroke-miterlimit="10" stroke-linecap="round" stroke-linejoin="round"/>
<path d="M33.9825 32.8867H31.0085V26.9814C31.0085 26.1602 31.6742 25.4945 32.4955 25.4945C33.3167 25.4945 33.9825 26.1602 33.9825 26.9814V32.8867Z" stroke="white" stroke-width="1.37695" stroke-miterlimit="10" stroke-linecap="round" stroke-linejoin="round"/>
<path d="M41.9984 32.8867H39.0244V26.9814C39.0244 26.1602 39.69 25.4945 40.5113 25.4945C41.3326 25.4945 41.9984 26.1602 41.9984 26.9814V32.8867Z" stroke="white" stroke-width="1.37695" stroke-miterlimit="10" stroke-linecap="round" stroke-linejoin="round"/>
<path d="M41.9985 28.8857H39.0244" stroke="white" stroke-width="1.37695" stroke-miterlimit="10" stroke-linecap="round" stroke-linejoin="round"/>
<path d="M33.983 28.8857H31.0088" stroke="white" stroke-width="1.37695" stroke-miterlimit="10" stroke-linecap="round" stroke-linejoin="round"/>
<path d="M0.688477 37.0361H6.85328" stroke="white" stroke-width="1.37695" stroke-miterlimit="10" stroke-linecap="round" stroke-linejoin="round"/>
<path d="M13.8408 37.0361H20.0056" stroke="white" stroke-width="1.37695" stroke-miterlimit="10" stroke-linecap="round" stroke-linejoin="round"/>
<path d="M26.9933 37.0371H33.1581" stroke="white" stroke-width="1.37695" stroke-miterlimit="10" stroke-linecap="round" stroke-linejoin="round"/>
<path d="M40.1465 37.0361H46.3113" stroke="white" stroke-width="1.37695" stroke-miterlimit="10" stroke-linecap="round" stroke-linejoin="round"/>
</svg>
