<svg width="47" height="47" viewBox="0 0 47 47" fill="none" xmlns="http://www.w3.org/2000/svg">
<path d="M44 44H39.5V19.5L23 9L8 18.5V44" stroke="white" stroke-width="1.4"/>
<path d="M43 17.5L22.5 4L4 16" stroke="white" stroke-width="1.4"/>
<path d="M8 22H13M8 25H10.5" stroke="white" stroke-width="1.4"/>
<path d="M8 28H13M8 31H10.5" stroke="white" stroke-width="1.4"/>
<path d="M8 34H13M8 37H10.5" stroke="white" stroke-width="1.4"/>
<path d="M8 40H13M8 43H10.5" stroke="white" stroke-width="1.4"/>
<path d="M17.1804 29.3882C17.1527 29.415 17.1259 29.4426 17.1001 29.471C17.1047 28.6271 17.311 28.009 17.7023 27.599L17.7023 27.599L17.7029 27.5985C18.1008 27.1753 18.6393 26.96 19.33 26.96C19.5772 26.96 19.8104 26.9828 20.0298 27.0279L20.0304 27.0281C20.2512 27.0722 20.4447 27.1538 20.6125 27.2718L20.7085 27.3394L20.7599 27.2338L21.1399 26.4538L21.179 26.3736L21.1037 26.3256C20.872 26.1782 20.5973 26.071 20.2815 26.0023C19.9738 25.934 19.6499 25.9 19.31 25.9C18.6485 25.9 18.0579 26.0434 17.5411 26.3327C17.0227 26.6231 16.6193 27.0515 16.331 27.6144C16.042 28.1787 15.9 28.8653 15.9 29.67C15.9 30.4263 16.0147 31.074 16.2483 31.61L16.2483 31.61L17.25 29.46M17.1804 29.3882L17.25 29.46M17.1804 29.3882C17.1804 29.3882 17.1804 29.3882 17.1804 29.3882L17.25 29.46M17.1804 29.3882C17.4114 29.1642 17.6843 28.9999 17.9978 28.8953M17.25 29.46C17.47 29.2467 17.73 29.09 18.03 28.99M17.9978 28.8953C17.9976 28.8954 17.9974 28.8955 17.9971 28.8956L18.03 28.99M17.9978 28.8953C17.998 28.8953 17.9982 28.8952 17.9984 28.8951L18.03 28.99M17.9978 28.8953L18.03 28.99M21.1938 29.7754C21.1937 29.7752 21.1936 29.7751 21.1935 29.7749L21.11 29.83L21.194 29.7757C21.1939 29.7756 21.1938 29.7755 21.1938 29.7754ZM19.6563 32.09L19.6563 32.09L19.6553 32.0906C19.4451 32.1956 19.1944 32.25 18.9 32.25C18.5513 32.25 18.2646 32.1886 18.0357 32.071C17.8024 31.9512 17.6305 31.7994 17.5149 31.6171C17.398 31.4262 17.34 31.2211 17.34 31C17.34 30.7582 17.4017 30.5479 17.523 30.3658C17.6526 30.1745 17.829 30.0223 18.0547 29.9094C18.2784 29.7976 18.5426 29.74 18.85 29.74C19.3268 29.74 19.6912 29.859 19.9548 30.0858L19.9558 30.0867C20.2172 30.3055 20.35 30.6027 20.35 30.99C20.35 31.246 20.2879 31.4665 20.1664 31.6551C20.0437 31.8389 19.8747 31.984 19.6563 32.09ZM28.0794 28.0149C27.8484 28.1573 27.6549 28.3261 27.4995 28.5211C27.3731 28.3235 27.2129 28.1584 27.0182 28.0274C26.6327 27.7612 26.1757 27.63 25.6519 27.63C25.1776 27.63 24.7569 27.7298 24.3932 27.9327C24.2134 28.0329 24.0561 28.1532 23.9219 28.2934V27.78V27.68H23.8219H22.9019H22.8019V27.78V33.08V33.18H22.9019H23.8619H23.9619V33.08V30.35C23.9619 29.9743 24.0267 29.6677 24.1509 29.4256C24.2758 29.1821 24.4489 29.0005 24.6704 28.8774C24.8936 28.7534 25.1531 28.69 25.4519 28.69C25.8714 28.69 26.1778 28.8132 26.3875 29.0468L26.3874 29.0468L26.3884 29.0478C26.605 29.2825 26.7219 29.6406 26.7219 30.14V33.08V33.18H26.8219H27.7819H27.8819V33.08V30.35C27.8819 29.9741 27.9434 29.6671 28.0613 29.4247C28.1862 29.1816 28.3592 29.0003 28.5804 28.8774C28.8033 28.7536 29.066 28.69 29.3719 28.69C29.7841 28.69 30.0915 28.8128 30.3084 29.0478C30.525 29.2825 30.6419 29.6406 30.6419 30.14V33.08V33.18H30.7419H31.7019H31.8019V33.08V30.03C31.8019 29.499 31.7067 29.0513 31.5099 28.6925C31.3208 28.3356 31.053 28.0673 30.7073 27.8909C30.3644 27.716 29.9718 27.63 29.5319 27.63C28.9826 27.63 28.4972 27.7572 28.0794 28.0149Z" fill="white" stroke="white" stroke-width="0.2"/>
</svg>
