<svg width="47" height="47" viewBox="0 0 47 47" fill="none" xmlns="http://www.w3.org/2000/svg">
<path d="M44 44H39.5V19.5L23 9L8 18.5V44" stroke="white" stroke-width="1.4"/>
<path d="M43 17.5L22.5 4L4 16" stroke="white" stroke-width="1.4"/>
<g clip-path="url(#clip0_323_961)">
<path d="M23.9996 23.2559C20.832 23.2559 18.2549 25.8329 18.2549 29.0005C18.2549 32.1682 20.832 34.7452 23.9996 34.7452C27.1672 34.7452 29.7443 32.1682 29.7443 29.0005C29.7443 25.8329 27.1672 23.2559 23.9996 23.2559ZM23.9996 33.4686C21.5359 33.4686 19.5315 31.4643 19.5315 29.0005C19.5315 26.5368 21.5359 24.5325 23.9996 24.5325C26.4633 24.5325 28.4677 26.5368 28.4677 29.0005C28.4677 31.4643 26.4633 33.4686 23.9996 33.4686Z" fill="white"/>
<path d="M23.9996 22.2698C24.3521 22.2698 24.6379 21.9841 24.6379 21.6316V19.6383C24.6379 19.2858 24.3521 19 23.9996 19C23.6471 19 23.3613 19.2858 23.3613 19.6383V21.6315C23.3613 21.984 23.6471 22.2698 23.9996 22.2698Z" fill="white"/>
<path d="M23.9996 35.7305C23.6471 35.7305 23.3613 36.0162 23.3613 36.3687V38.362C23.3613 38.7145 23.6471 39.0003 23.9996 39.0003C24.3521 39.0003 24.6379 38.7145 24.6379 38.362V36.3687C24.6379 36.0163 24.3521 35.7305 23.9996 35.7305Z" fill="white"/>
<path d="M18.3383 24.2412C18.5876 24.4905 18.9917 24.4905 19.241 24.2412C19.4903 23.992 19.4903 23.5878 19.241 23.3385L17.8316 21.9291C17.5824 21.6799 17.1782 21.6799 16.9289 21.9291C16.6796 22.1783 16.6796 22.5825 16.9289 22.8318L18.3383 24.2412Z" fill="white"/>
<path d="M29.6619 33.7592C29.4127 33.5099 29.0085 33.51 28.7592 33.7592C28.51 34.0084 28.51 34.4126 28.7592 34.6619L30.1686 36.0713C30.4178 36.3206 30.822 36.3206 31.0713 36.0713C31.3206 35.8221 31.3206 35.4179 31.0713 35.1686L29.6619 33.7592Z" fill="white"/>
<path d="M17.2698 28.9996C17.2698 28.6471 16.9841 28.3613 16.6316 28.3613H14.6383C14.2858 28.3613 14 28.6471 14 28.9996C14 29.3521 14.2858 29.6379 14.6383 29.6379H16.6315C16.984 29.6379 17.2698 29.3521 17.2698 28.9996Z" fill="white"/>
<path d="M33.362 28.3613H31.3687C31.0162 28.3613 30.7305 28.6471 30.7305 28.9996C30.7305 29.3521 31.0162 29.6379 31.3687 29.6379H33.362C33.7145 29.6379 34.0003 29.3521 34.0003 28.9996C34.0003 28.6471 33.7145 28.3613 33.362 28.3613Z" fill="white"/>
<path d="M18.3383 33.7592L16.9289 35.1687C16.6796 35.418 16.6796 35.8221 16.9289 36.0714C17.1781 36.3207 17.5823 36.3207 17.8316 36.0714L19.241 34.6619C19.4903 34.4127 19.4903 34.0085 19.241 33.7592C18.9917 33.5099 18.5876 33.5099 18.3383 33.7592Z" fill="white"/>
<path d="M29.6619 24.2413L31.0713 22.8318C31.3206 22.5826 31.3206 22.1784 31.0713 21.9291C30.8221 21.6799 30.4179 21.6799 30.1686 21.9291L28.7592 23.3386C28.51 23.5878 28.51 23.992 28.7592 24.2413C29.0085 24.4905 29.4126 24.4906 29.6619 24.2413Z" fill="white"/>
</g>
<defs>
<clipPath id="clip0_323_961">
<rect width="20" height="20" fill="white" transform="translate(14 19)"/>
</clipPath>
</defs>
</svg>
