<svg width="47" height="47" viewBox="0 0 47 47" fill="none" xmlns="http://www.w3.org/2000/svg">
<path d="M23.4843 35.5176C23.1607 35.5176 22.8983 35.7799 22.8983 36.1035V42.4143C22.8983 42.7379 23.1607 43.0002 23.4843 43.0002C23.8078 43.0002 24.0702 42.7379 24.0702 42.4143V36.1035C24.0702 35.7799 23.8079 35.5176 23.4843 35.5176Z" fill="white"/>
<path d="M32.8792 19.9097H32.8389V15.4856C32.8389 14.8172 32.2951 14.2734 31.6267 14.2734H30.3742C29.7057 14.2734 29.162 14.8172 29.162 15.4856V19.9097H29.1217C28.4532 19.9097 27.9095 20.4535 27.9095 21.1219V25.4867C27.9095 25.868 27.8686 25.9231 27.6419 26.2289C27.5688 26.3276 27.4778 26.4504 27.3772 26.6012L24.4704 30.9622C24.0651 31.5704 23.7363 32.2184 23.4853 32.8932C23.2343 32.2184 22.9055 31.5704 22.5001 30.9622L19.5933 26.6012C19.4928 26.4504 19.4018 26.3276 19.3287 26.2289C19.1019 25.9231 19.0611 25.868 19.0611 25.4867V21.1219C19.0611 20.4535 18.5173 19.9097 17.8489 19.9097H17.8086V15.4856C17.8086 14.8172 17.2648 14.2734 16.5964 14.2734H15.3439C14.6755 14.2734 14.1317 14.8172 14.1317 15.4856V19.9097H14.0914C13.423 19.9097 12.8792 20.4535 12.8792 21.1219V25.4852C12.8792 27.3357 13.4082 28.468 14.4502 30.0313L17.357 34.3924C17.7052 34.9148 17.8893 35.5228 17.8893 36.1506V42.4147C17.8893 42.7383 18.1516 43.0006 18.4752 43.0006C18.7988 43.0006 19.0612 42.7383 19.0612 42.4147V36.1505C19.0612 35.2906 18.8091 34.4578 18.3321 33.7424L15.4253 29.3813C14.4941 27.9843 14.051 27.0449 14.051 25.4851V21.1219C14.051 21.0996 14.0691 21.0815 14.0914 21.0815H17.849C17.8712 21.0815 17.8893 21.0996 17.8893 21.1219V25.4866C17.8893 26.2178 18.0785 26.5102 18.3873 26.9268C18.4594 27.024 18.5341 27.1246 18.6184 27.2511L21.5251 31.6121C22.4242 32.961 22.8994 34.5309 22.8994 36.1519C22.8994 36.4755 23.1618 36.7378 23.4854 36.7378C23.809 36.7378 24.0713 36.4755 24.0713 36.1519C24.0713 34.5308 24.5465 32.961 25.4456 31.6121L28.3524 27.2511C28.4367 27.1246 28.5112 27.024 28.5834 26.9268C28.8921 26.5102 29.0814 26.2178 29.0814 25.4866V21.1219C29.0814 21.0996 29.0995 21.0815 29.1218 21.0815H32.8793C32.9016 21.0815 32.9197 21.0996 32.9197 21.1219V25.4851C32.9197 27.0449 32.4766 27.9843 31.5454 29.3813L28.6386 33.7423C28.1618 34.4578 27.9096 35.2905 27.9096 36.1505V42.4147C27.9096 42.7383 28.1719 43.0006 28.4955 43.0006C28.8191 43.0006 29.0814 42.7383 29.0814 42.4147V36.1505C29.0814 35.5227 29.2655 34.9147 29.6137 34.3923L32.5205 30.0312C33.5624 28.4679 34.0916 27.3356 34.0916 25.4851V21.1219C34.0914 20.4535 33.5475 19.9097 32.8792 19.9097ZM16.6368 19.9097H15.3037V15.4856C15.3037 15.4634 15.3217 15.4453 15.344 15.4453H16.5965C16.6187 15.4453 16.6368 15.4634 16.6368 15.4856V19.9097ZM31.667 19.9097H30.3339V15.4856C30.3339 15.4634 30.3519 15.4453 30.3742 15.4453H31.6267C31.6489 15.4453 31.667 15.4634 31.667 15.4856V19.9097Z" fill="white"/>
<path d="M15.9698 3C13.2294 3 11 5.22945 11 7.96975C11 10.7101 13.2294 12.9395 15.9698 12.9395C18.7101 12.9395 20.9395 10.7101 20.9395 7.96975C20.9395 5.22945 18.7101 3 15.9698 3ZM15.9698 11.7676C13.8757 11.7676 12.1719 10.0639 12.1719 7.96975C12.1719 5.87562 13.8757 4.17187 15.9698 4.17187C18.064 4.17187 19.7677 5.87562 19.7677 7.96975C19.7677 10.0639 18.064 11.7676 15.9698 11.7676Z" fill="white"/>
<path d="M30.9988 3C28.2585 3 26.0291 5.22945 26.0291 7.96975C26.0291 10.7101 28.2585 12.9395 30.9988 12.9395C33.7392 12.9395 35.9686 10.7101 35.9686 7.96975C35.9686 5.22945 33.7393 3 30.9988 3ZM30.9988 11.7676C28.9047 11.7676 27.2009 10.0639 27.2009 7.96975C27.2009 5.87562 28.9047 4.17187 30.9988 4.17187C33.093 4.17187 34.7967 5.87562 34.7967 7.96975C34.7967 10.0639 33.0931 11.7676 30.9988 11.7676Z" fill="white"/>
<path d="M17.8493 7.38371H16.5565V6.09082C16.5565 5.76723 16.2941 5.50488 15.9705 5.50488C15.6469 5.50488 15.3846 5.76723 15.3846 6.09082V7.38363H14.0918C13.7682 7.38363 13.5059 7.64597 13.5059 7.96956C13.5059 8.29316 13.7682 8.5555 14.0918 8.5555H15.3846V9.84831C15.3846 10.1719 15.6469 10.4342 15.9705 10.4342C16.2941 10.4342 16.5565 10.172 16.5565 9.84839V8.55558H17.8493C18.1729 8.55558 18.4352 8.29323 18.4352 7.96964C18.4352 7.64605 18.1728 7.38371 17.8493 7.38371Z" fill="white"/>
<path d="M32.8778 7.38379H29.1202C28.7966 7.38379 28.5343 7.64613 28.5343 7.96972C28.5343 8.29332 28.7966 8.55566 29.1202 8.55566H32.8778C33.2014 8.55566 33.4637 8.29332 33.4637 7.96972C33.4637 7.64613 33.2015 7.38379 32.8778 7.38379Z" fill="white"/>
</svg>
