<svg width="47" height="47" viewBox="0 0 47 47" fill="none" xmlns="http://www.w3.org/2000/svg">
<g clip-path="url(#clip0_323_1064)">
<path d="M20.1444 8.98589C5.91392 10.8665 7.56862 10.6414 6.63866 10.7905C6.28395 10.8474 6.02637 11.1495 6.02637 11.5088V22.665C6.02637 23.0671 6.35183 23.3929 6.75412 23.3929C6.75433 23.3929 6.75453 23.3929 6.75474 23.3929C11.2006 23.3891 15.6889 23.2724 20.2401 23.2688C20.641 23.2685 20.9671 22.9423 20.9671 22.5416V9.70722C20.9672 9.26699 20.5789 8.92827 20.1444 8.98589ZM19.9433 22.2454C15.5829 22.2535 11.3025 22.3603 7.05025 22.3687V11.7615C7.65469 11.6646 6.16999 11.8655 19.9433 10.0453V22.2454Z" fill="white"/>
<path d="M20.2226 23.742C16.2776 23.8394 6.68681 23.7363 6.7551 23.7363C6.35294 23.7363 6.02734 24.0619 6.02734 24.4642V35.6158C6.02734 35.9782 6.29818 36.2881 6.65734 36.3367C6.72939 36.3465 20.0641 38.1497 20.2401 38.1497C20.6408 38.1497 20.968 37.8248 20.968 37.4222V24.4688C20.9681 24.0537 20.6244 23.7317 20.2226 23.742ZM19.9442 37.0842C15.5188 36.5008 11.2172 35.9197 7.05116 35.3567V24.7667C11.2923 24.7748 15.5778 24.8651 19.9442 24.7667V37.0842Z" fill="white"/>
<path d="M40.1427 6.00743C37.2986 6.41348 31.725 7.21927 28.9613 7.62307C28.6815 7.66395 28.4878 7.92392 28.5287 8.20365C28.5696 8.48338 28.8291 8.67711 29.1093 8.63623C31.7479 8.25068 37.1703 7.46574 39.9497 7.06925V22.121C34.2042 22.1273 28.3226 22.2383 22.5835 22.2446V9.65413C23.602 9.50264 25.2262 9.2169 29.5287 8.57336C29.8084 8.53153 30.0011 8.27094 29.9593 7.99135C29.9175 7.71176 29.6568 7.51885 29.3773 7.56076C25.0661 8.20559 23.5375 8.47711 22.1802 8.67891C21.8264 8.73148 21.5596 9.04081 21.5596 9.39846V22.5409C21.5596 22.9428 21.8846 23.2686 22.2869 23.2686C27.924 23.2686 34.3197 23.1473 40.247 23.1445C40.6476 23.1443 40.9736 22.818 40.9736 22.4173V6.72746C40.9736 6.28544 40.5812 5.94488 40.1427 6.00743Z" fill="white"/>
<path d="M40.4618 34.8126C40.7445 34.8126 40.9737 34.5834 40.9737 34.3007L40.9736 24.5878C40.9736 24.1867 40.6473 23.8604 40.2462 23.8604H22.2871C21.8859 23.8604 21.5596 24.1867 21.5596 24.5878V37.7291C21.5596 38.0891 21.8282 38.3989 22.1846 38.4495C28.0988 39.2917 34.2073 40.0305 40.1303 40.9905C40.5715 41.0623 40.9737 40.7213 40.9737 40.2727V34.2429C40.9737 33.9602 40.7445 33.731 40.4618 33.731C40.179 33.731 39.9498 33.9602 39.9498 34.2429V39.9242C34.2029 39.0021 28.3161 38.2846 22.5835 37.472V24.8842H39.9497L39.9498 34.3007C39.9498 34.5834 40.179 34.8126 40.4618 34.8126Z" fill="white"/>
</g>
<defs>
<clipPath id="clip0_323_1064">
<rect width="35" height="35" fill="white" transform="translate(6 6)"/>
</clipPath>
</defs>
</svg>
