<svg width="47" height="47" viewBox="0 0 47 47" fill="none" xmlns="http://www.w3.org/2000/svg">
<path d="M1 28.8876V31.5169L23.3973 39M1 28.8876L12.1986 32.7303M1 28.8876L12.1986 24.9438M46 28.8876V31.3146L23.3973 39M46 28.8876L34.6986 24.9438M46 28.8876L34.6986 32.7303M23.3973 39V36.573M23.3973 36.573L12.1986 32.7303M23.3973 36.573L34.6986 32.7303M12.1986 32.7303L34.6986 24.9438M34.6986 24.9438L23.3973 21L12.1986 24.9438M34.6986 32.7303L12.1986 24.9438" stroke="white" stroke-width="1.1"/>
<path d="M16.1762 13.8367C15.5566 12.632 15.0682 11.681 16.1461 10.1256C16.3767 9.79217 16.2818 9.3428 15.9365 9.12101C15.5943 8.90064 15.1239 8.98911 14.8918 9.32248C13.33 11.5723 14.1591 13.1843 14.8254 14.4789C15.4481 15.6908 15.8988 16.5663 14.8918 18.0203C14.6597 18.3537 14.7546 18.8031 15.0998 19.0249C15.228 19.1075 15.3742 19.1467 15.519 19.1467C15.7617 19.1467 15.9999 19.0336 16.1446 18.8234C17.6356 16.6751 16.8275 15.1008 16.1762 13.8367Z" fill="white"/>
<path d="M24.1818 13.8367C23.5607 12.632 23.0722 11.681 24.1501 10.1256C24.3808 9.79217 24.2858 9.3428 23.9406 9.12101C23.5983 8.90064 23.1265 8.98911 22.8958 9.32248C21.3355 11.5738 22.1647 13.1857 22.8295 14.4803C23.4521 15.6922 23.9028 16.5678 22.8958 18.0203C22.6652 18.3537 22.7602 18.8031 23.1054 19.0249C23.2335 19.1075 23.3782 19.1467 23.5229 19.1467C23.7657 19.1467 24.0038 19.0336 24.1501 18.8234C25.6411 16.6751 24.833 15.1008 24.1818 13.8367Z" fill="white"/>
<path d="M32.1766 13.8367C31.5556 12.632 31.0671 11.681 32.145 10.1256C32.3756 9.79217 32.2807 9.3428 31.9355 9.12101C31.5932 8.90064 31.1214 8.98911 30.8907 9.32248C29.3304 11.5738 30.1595 13.1857 30.8244 14.4803C31.447 15.6922 31.8977 16.5678 30.8907 18.0203C30.6601 18.3537 30.755 18.8031 31.1002 19.0249C31.2284 19.1075 31.3731 19.1467 31.5178 19.1467C31.762 19.1467 32.0003 19.0336 32.145 18.8234C33.636 16.6751 32.8279 15.1008 32.1766 13.8367Z" fill="white"/>
</svg>
