<svg width="47" height="47" viewBox="0 0 47 47" fill="none" xmlns="http://www.w3.org/2000/svg">
<path d="M43.5994 42.9345H42.7295L40.9371 38.1543V35.6897L42.9172 27.1104C42.9624 26.9128 42.9158 26.7058 42.7894 26.5467C42.6636 26.3876 42.4712 26.2951 42.2689 26.2951H34.9476C34.6374 26.2951 34.3685 26.5088 34.2986 26.8109L32.4211 34.9476H30.2886C29.1877 34.9476 28.2918 35.8434 28.2918 36.9443V38.1949L27.1071 42.9345H26.2951V41.6033C26.2951 41.0635 26.0256 40.611 25.6295 40.4006V33.6164H30.2886C31.3894 33.6164 32.2853 32.7206 32.2853 31.6197C32.2853 30.5188 31.3894 29.623 30.2886 29.623H24.2984V14.9843C30.9801 15.0229 34.1196 15.6266 34.1522 15.6333C34.1948 15.6419 34.2387 15.6466 34.2813 15.6466H34.2833C34.3585 15.6466 34.4318 15.6293 34.5016 15.6047C34.511 15.6013 34.5203 15.6027 34.5296 15.5993C37.1114 14.5677 43.425 15.6259 43.4889 15.6373C43.7571 15.6832 44.0333 15.5574 44.1738 15.3191C44.3142 15.0808 44.2929 14.7807 44.1205 14.565C39.2279 8.44972 27.0605 5.67694 24.2991 5.1152V3.66557C24.2991 3.29751 24.0015 3 23.6335 3C23.2654 3 22.9679 3.29751 22.9679 3.66557V5.11453C20.2064 5.67628 8.03907 8.44906 3.14643 14.5644C2.97404 14.78 2.95274 15.0802 3.09318 15.3185C3.23362 15.5567 3.50916 15.6839 3.77806 15.6366C3.84195 15.6253 10.1549 14.567 12.7374 15.5987C12.7427 15.6007 12.7487 15.6 12.754 15.602C12.8186 15.626 12.8871 15.6379 12.957 15.6413C12.9663 15.6413 12.975 15.6466 12.9843 15.6466C13.0069 15.6466 13.0282 15.6393 13.0502 15.6366C13.0715 15.6346 13.0928 15.6379 13.1141 15.6333C13.146 15.6273 16.2855 15.0236 22.9679 14.9843V29.623H16.9777C15.8769 29.623 14.981 30.5188 14.981 31.6197C14.981 32.7206 15.8769 33.6164 16.9777 33.6164H21.6368V40.4006C21.2407 40.611 20.9712 41.0629 20.9712 41.6033V42.9345H20.1592L18.9745 38.1949V36.9443C18.9745 35.8434 18.0786 34.9476 16.9777 34.9476H14.8452L12.9676 26.8109C12.8984 26.5088 12.6289 26.2951 12.3187 26.2951H4.99606C4.79306 26.2951 4.60137 26.3876 4.47558 26.5467C4.34912 26.7051 4.30186 26.9128 4.34779 27.1104L6.32787 35.6897V38.1543L4.53548 42.9345H3.66557C3.29751 42.9345 3 43.232 3 43.6001C3 43.9681 3.29751 44.2656 3.66557 44.2656H43.5994C43.9674 44.2656 44.265 43.9681 44.265 43.6001C44.265 43.232 43.9674 42.9345 43.5994 42.9345ZM34.5616 14.1883C32.5974 11.0907 30.1182 8.87702 28.0363 7.40943C32.1901 8.57951 38.2289 10.7306 41.831 14.0645C39.8043 13.8329 36.6069 13.6126 34.5616 14.1883ZM5.43268 14.0645C9.03477 10.7313 15.0735 8.57951 19.2274 7.40943C17.1455 8.87702 14.6662 11.0914 12.7021 14.1883C10.6561 13.6126 7.45935 13.8329 5.43268 14.0638V14.0645ZM23.6321 6.38844C24.7636 6.9016 29.5251 9.26905 32.9202 14.1078C31.2789 13.9094 28.2472 13.6499 23.6321 13.6499C19.0171 13.6499 15.9854 13.9101 14.3441 14.1078C17.7398 9.26905 22.5007 6.90226 23.6321 6.38844ZM38.736 42.9345L37.2385 38.941H39.8096L41.3071 42.9345H38.736ZM35.8162 38.941L37.3137 42.9345H32.471L33.4693 38.941H35.8162ZM35.476 27.6263H41.4309L39.7411 34.9476H33.7862L35.476 27.6263ZM29.6217 36.9443C29.6217 36.5769 29.9198 36.2787 30.2872 36.2787H39.6053V37.6099H29.6217V36.9443ZM29.4752 38.941H32.0969L31.0986 42.9345H28.4769L29.4752 38.941ZM16.3102 31.6197C16.3102 31.2523 16.6083 30.9541 16.9757 30.9541H30.2872C30.6546 30.9541 30.9528 31.2523 30.9528 31.6197C30.9528 31.9871 30.6546 32.2853 30.2872 32.2853H16.9764C16.609 32.2853 16.3108 31.9871 16.3108 31.6197H16.3102ZM24.2971 33.6164V40.2722H22.9659V33.6164H24.2971ZM22.3003 41.6033H24.9626V42.9345H22.3003V41.6033ZM16.1637 42.9345L15.1654 38.941H17.7871L18.7854 42.9345H16.1637ZM13.7936 38.941L14.792 42.9345H9.94926L11.4468 38.941H13.7936ZM17.6406 36.9443V37.6099H7.65836V36.2787H16.9764C17.3438 36.2787 17.642 36.5769 17.642 36.9443H17.6406ZM11.7863 27.6263L13.4761 34.9476H7.52258L5.83269 27.6263H11.7876H11.7863ZM7.45269 38.941H10.0238L8.52627 42.9345H5.95515L7.45269 38.941Z" fill="white"/>
</svg>
