<svg width="45" height="45" viewBox="0 0 45 45" fill="none" xmlns="http://www.w3.org/2000/svg">
<g clip-path="url(#clip0_323_912)">
<path d="M8.65253 30.3429C9.26503 32.5154 11.1388 32.9129 11.2638 32.9891C14.3475 33.8291 31.6325 33.8316 34.7625 32.9891C36.9063 32.3691 37.3 30.4679 37.3738 30.3429C38.19 26.0004 38.2438 20.3391 37.3363 15.4116L37.3738 15.6566C36.7613 13.4841 34.8875 13.0866 34.7625 13.0104C31.72 12.1841 14.39 12.1529 11.2638 13.0104C9.12003 13.6316 8.72628 15.5316 8.65253 15.6566C7.77878 20.2204 7.73503 25.4566 8.65253 30.3429ZM20.01 27.5641V18.4479L27.8425 23.0129L20.01 27.5641Z" fill="#D4D4D4"/>
</g>
<defs>
<clipPath id="clip0_323_912">
<rect width="30" height="30" fill="white" transform="translate(8 8)"/>
</clipPath>
</defs>
</svg>
