<svg width="45" height="45" viewBox="0 0 45 45" fill="none" xmlns="http://www.w3.org/2000/svg">
<g clip-path="url(#clip0_323_915)">
<path d="M23.0001 10.0537C15.8204 10.0537 10 15.8741 10 23.0538C10 29.4931 14.6868 34.826 20.8319 35.8586V25.766H17.6959V22.134H20.8319V19.456C20.8319 16.3487 22.7298 14.6554 25.5021 14.6554C26.8299 14.6554 27.971 14.7543 28.3022 14.7979V18.0458L26.3794 18.0468C24.872 18.0468 24.5814 18.7629 24.5814 19.8142V22.1322H28.1782L27.709 25.7641H24.5814V35.9455C31.0135 35.1626 36 29.6939 36 23.0501C36 15.8741 30.1796 10.0537 23.0001 10.0537Z" fill="#D5D5D5"/>
</g>
<defs>
<clipPath id="clip0_323_915">
<rect width="26" height="26" fill="white" transform="translate(10 10)"/>
</clipPath>
</defs>
</svg>
