<svg width="21" height="21" viewBox="0 0 21 21" fill="none" xmlns="http://www.w3.org/2000/svg">
<path d="M10.5003 0C5.94459 0 2.23828 3.70631 2.23828 8.26198C2.23828 9.75393 2.62327 11.3378 3.3825 12.9694C3.98199 14.2578 4.81568 15.5802 5.8604 16.9C7.63148 19.1374 9.37762 20.579 9.45112 20.6392C9.73476 20.8718 10.1073 21 10.5003 21C10.8932 21 11.2658 20.8718 11.5495 20.6392C11.6229 20.5789 13.369 19.1374 15.1401 16.9C16.1848 15.5802 17.0185 14.2578 17.618 12.9694C18.3773 11.3377 18.7622 9.75393 18.7622 8.26193C18.7622 3.70631 15.0559 0 10.5003 0ZM14.4071 16.295C12.6988 18.4566 10.964 19.8904 10.9468 19.9045C10.8342 19.9968 10.6715 20.0498 10.5003 20.0498C10.329 20.0498 10.1663 19.9968 10.0538 19.9045C9.98514 19.8482 3.18856 14.2036 3.18856 8.26198C3.18851 4.23027 6.46855 0.950226 10.5003 0.950226C14.532 0.950226 17.812 4.23027 17.812 8.26198C17.812 11.3404 15.9604 14.3296 14.4071 16.295Z" fill="#E25100"/>
<path d="M10.5001 3.86914C8.078 3.86914 6.10742 5.83972 6.10742 8.26189C6.10742 10.684 8.078 12.6546 10.5001 12.6546C12.9223 12.6546 14.8928 10.684 14.8928 8.26189C14.8928 5.83972 12.9223 3.86914 10.5001 3.86914ZM10.5001 11.7044C8.60191 11.7044 7.05765 10.1601 7.05765 8.26189C7.05765 6.36367 8.60191 4.81937 10.5001 4.81937C12.3983 4.81937 13.9426 6.36367 13.9426 8.26189C13.9426 10.1601 12.3983 11.7044 10.5001 11.7044Z" fill="#E25100"/>
</svg>
