<svg width="41" height="41" viewBox="0 0 41 41" fill="none" xmlns="http://www.w3.org/2000/svg">
<path d="M20.4997 5.25586C12.0947 5.25586 5.25586 12.0947 5.25586 20.4997C5.25586 28.9047 12.0947 35.7435 20.4997 35.7435C28.9047 35.7435 35.7435 28.9047 35.7435 20.4997C35.7435 12.0947 28.9047 5.25586 20.4997 5.25586ZM20.4997 34.5135C12.7753 34.5135 6.48586 28.2282 6.48586 20.4997C6.48586 12.7712 12.7753 6.48586 20.4997 6.48586C28.2241 6.48586 34.5135 12.7753 34.5135 20.4997C34.5135 28.2241 28.2241 34.5135 20.4997 34.5135Z" fill="#E25100"/>
<path d="M21.1147 19.8848H27.8141C28.1544 19.8848 28.4291 20.1595 28.4291 20.4998C28.4291 20.8401 28.1544 21.1148 27.8141 21.1148H21.1147H19.8847H13.1853C12.845 21.1148 12.5703 20.8401 12.5703 20.4998C12.5703 20.1595 12.845 19.8848 13.1853 19.8848H19.8847H21.1147Z" fill="#E25100"/>
</svg>
