<svg width="49" height="49" viewBox="0 0 49 49" fill="none" xmlns="http://www.w3.org/2000/svg">
<path d="M24.5 0C10.9899 0 0 10.9909 0 24.5C0 38.0091 10.9899 49 24.5 49C38.0101 49 49 38.0091 49 24.5C49 10.9909 38.0101 0 24.5 0ZM24.5 46.9584C12.1164 46.9584 2.04163 36.8836 2.04163 24.5C2.04163 12.1164 12.1164 2.04163 24.5 2.04163C36.8836 2.04163 46.9584 12.1164 46.9584 24.5C46.9584 36.8836 36.8836 46.9584 24.5 46.9584Z" fill="#E25100"/>
<path d="M34.2398 23.6422L19.9482 14.4547C19.6351 14.2504 19.2304 14.2394 18.9074 14.4168C18.5784 14.5962 18.375 14.9392 18.375 15.3131V33.688C18.375 34.0619 18.5784 34.4049 18.9074 34.5843C19.0589 34.6671 19.2284 34.7089 19.3959 34.7089C19.5873 34.7089 19.7807 34.655 19.9482 34.5464L34.2398 25.3589C34.5309 25.1715 34.7084 24.8475 34.7084 24.5005C34.7084 24.1536 34.5309 23.8297 34.2398 23.6422ZM20.4166 31.8178V17.1833L31.7994 24.5005L20.4166 31.8178Z" fill="#E25100"/>
</svg>
