<svg width="41" height="41" viewBox="0 0 41 41" fill="none" xmlns="http://www.w3.org/2000/svg">
<path d="M20.4997 5.25586C12.0947 5.25586 5.25586 12.0947 5.25586 20.4997C5.25586 28.9047 12.0947 35.7435 20.4997 35.7435C28.9047 35.7435 35.7435 28.9047 35.7435 20.4997C35.7435 12.0947 28.9047 5.25586 20.4997 5.25586ZM20.4997 34.5135C12.7753 34.5135 6.48586 28.2282 6.48586 20.4997C6.48586 12.7712 12.7753 6.48586 20.4997 6.48586C28.2241 6.48586 34.5135 12.7753 34.5135 20.4997C34.5135 28.2241 28.2241 34.5135 20.4997 34.5135Z" fill="#E25100"/>
<path d="M27.8141 19.8847H21.1147V13.1853C21.1147 12.845 20.84 12.5703 20.4997 12.5703C20.1594 12.5703 19.8847 12.845 19.8847 13.1853V19.8847H13.1853C12.845 19.8847 12.5703 20.1594 12.5703 20.4997C12.5703 20.84 12.845 21.1147 13.1853 21.1147H19.8847V27.8141C19.8847 28.1544 20.1594 28.4291 20.4997 28.4291C20.84 28.4291 21.1147 28.1544 21.1147 27.8141V21.1147H27.8141C28.1544 21.1147 28.4291 20.84 28.4291 20.4997C28.4291 20.1594 28.1544 19.8847 27.8141 19.8847Z" fill="#E25100"/>
</svg>
