<svg width="34" height="34" viewBox="0 0 34 34" fill="none" xmlns="http://www.w3.org/2000/svg">
<path d="M34 17C34 26.3888 26.3888 34 17 34C7.61116 34 0 26.3888 0 17C0 7.61116 7.61116 0 17 0C26.3888 0 34 7.61116 34 17Z" fill="#282828"/>
<path fill-rule="evenodd" clip-rule="evenodd" d="M17 32.717C25.6802 32.717 32.717 25.6802 32.717 17C32.717 8.31975 25.6802 1.28302 17 1.28302C8.31975 1.28302 1.28302 8.31975 1.28302 17C1.28302 25.6802 8.31975 32.717 17 32.717ZM17 34C26.3888 34 34 26.3888 34 17C34 7.61116 26.3888 0 17 0C7.61116 0 0 7.61116 0 17C0 26.3888 7.61116 34 17 34Z" fill="white"/>
<path fill-rule="evenodd" clip-rule="evenodd" d="M14.9419 13.018C15.1924 12.7674 15.5986 12.7674 15.8492 13.018L19.6982 16.867C19.9487 17.1176 19.9487 17.5237 19.6982 17.7743L15.8492 21.6233C15.5986 21.8738 15.1924 21.8738 14.9419 21.6233C14.6914 21.3728 14.6914 20.9666 14.9419 20.7161L18.3374 17.3206L14.9419 13.9252C14.6914 13.6747 14.6914 13.2685 14.9419 13.018Z" fill="white"/>
</svg>
