<svg width="44" height="44" viewBox="0 0 44 44" fill="none" xmlns="http://www.w3.org/2000/svg">
<path d="M22 -9.61651e-07C34.1503 -1.49276e-06 44 9.84973 44 22C44 34.1503 34.1503 44 22 44C9.84974 44 -4.30546e-07 34.1503 -9.61651e-07 22C-1.49276e-06 9.84974 9.84973 -4.30546e-07 22 -9.61651e-07Z" fill="#282828"/>
<path fill-rule="evenodd" clip-rule="evenodd" d="M42.3396 22C42.3396 10.7667 33.2333 1.66038 22 1.66038C10.7667 1.66038 1.66038 10.7667 1.66038 22C1.66038 33.2333 10.7667 42.3396 22 42.3396C33.2333 42.3396 42.3396 33.2333 42.3396 22ZM44 22C44 9.84973 34.1503 -1.49276e-06 22 -9.61651e-07C9.84973 -4.30546e-07 -1.49276e-06 9.84974 -9.61651e-07 22C-4.30546e-07 34.1503 9.84974 44 22 44C34.1503 44 44 34.1503 44 22Z" fill="#A73C00"/>
<path fill-rule="evenodd" clip-rule="evenodd" d="M16.8467 24.6631C16.5225 24.3389 16.5225 23.8132 16.8467 23.489L21.8278 18.5079C22.152 18.1837 22.6777 18.1837 23.0019 18.5079L27.983 23.489C28.3072 23.8132 28.3072 24.3389 27.983 24.6631C27.6588 24.9873 27.1331 24.9873 26.8089 24.6631L22.4148 20.269L18.0207 24.6631C17.6965 24.9873 17.1709 24.9873 16.8467 24.6631Z" fill="#A73C00"/>
</svg>
